<svg width="568" height="477" viewBox="0 0 568 477" fill="none" xmlns="http://www.w3.org/2000/svg">
<path d="M0 24C0 10.7452 10.7452 0 24 0H568V477H24C10.7452 477 0 466.255 0 453V24Z" fill="#F0F2F7"/>
<path d="M332 275.833V201.167C332 195.3 327.2 190.5 321.333 190.5H246.667C240.8 190.5 236 195.3 236 201.167V275.833C236 281.7 240.8 286.5 246.667 286.5H321.333C327.2 286.5 332 281.7 332 275.833ZM265.333 246.5L278.667 262.553L297.333 238.5L321.333 270.5H246.667L265.333 246.5Z" fill="#C3C7D2"/>
</svg>
