<svg width="118" height="104" viewBox="0 0 118 104" fill="none" xmlns="http://www.w3.org/2000/svg">
<path d="M59.3551 103.685C42.1671 103.685 24.9791 103.685 7.79111 103.685C6.95149 103.685 6.10102 103.685 5.25779 103.598C0.954753 103.196 -0.775146 100.297 1.0597 96.378C2.65208 92.9942 4.38922 89.6973 6.07569 86.3496C14.0376 70.5875 21.9994 54.8278 29.9613 39.0706C30.2074 38.5892 30.4644 38.1079 30.7503 37.6483C32.7552 34.4346 36.0123 33.9822 38.5782 36.7544C40.3878 38.6942 41.9186 40.8728 43.5327 42.9755C51.7359 53.6951 59.939 64.4195 68.1421 75.1487C71.725 79.8173 76.2379 80.0706 80.4469 75.8725C82.535 73.788 84.5762 71.6491 86.6897 69.5826C90.5005 65.855 94.8253 66.0794 97.9377 70.4259C104.184 79.1478 110.275 87.9854 116.395 96.7942C116.873 97.4852 117.239 98.2474 117.48 99.0525C118.074 101.076 117.234 102.704 115.182 103.243C113.896 103.551 112.575 103.694 111.252 103.667C93.9628 103.696 76.6638 103.702 59.3551 103.685Z" fill="#98A2B3"/>
<path d="M97.9014 17.3166C97.897 20.6809 96.8938 23.9681 95.0189 26.7616C93.144 29.555 90.4818 31.7288 87.37 33.0075C84.2581 34.2861 80.8366 34.6119 77.5394 33.9437C74.2421 33.2754 71.2175 31.6431 68.849 29.2538C66.4805 26.8645 64.8748 23.8257 64.2355 20.5227C63.5962 17.2197 63.952 13.8012 65.2578 10.7007C66.5636 7.60015 68.7607 4.95716 71.5705 3.1068C74.3802 1.25644 77.6761 0.28203 81.0403 0.307113C85.5201 0.364042 89.7982 2.17904 92.9522 5.36085C96.1063 8.54266 97.8838 12.8364 97.9014 17.3166Z" fill="#98A2B3"/>
</svg>
